<svg xmlns="http://www.w3.org/2000/svg" xmlns:xlink="http://www.w3.org/1999/xlink" preserveAspectRatio="xMidYMid" width="19" height="18.03" viewBox="0 0 19 18.03">
  <defs>
    <style>
      .cls-1 {
        fill: #fff;
        filter: url(#color-overlay-1);
        fill-rule: evenodd;
      }
    </style>

    <filter id="color-overlay-1" filterUnits="userSpaceOnUse">
      <feFlood flood-color="#fff"/>
      <feComposite operator="in" in2="SourceGraphic"/>
      <feBlend in2="SourceGraphic" result="solidFill"/>
    </filter>
  </defs>
  <path d="M18.911,9.404 C18.861,9.534 18.788,9.657 18.683,9.762 L10.731,17.715 C10.331,18.114 9.684,18.114 9.285,17.715 C8.886,17.314 8.886,16.668 9.285,16.269 L15.553,10.000 L1.000,10.000 C0.448,10.000 0.000,9.552 0.000,9.000 C0.000,8.448 0.448,8.000 1.000,8.000 L15.555,8.000 L9.285,1.730 C8.886,1.331 8.886,0.683 9.285,0.284 C9.684,-0.116 10.331,-0.116 10.731,0.284 L18.683,8.236 C18.788,8.342 18.862,8.465 18.912,8.596 C18.967,8.720 19.000,8.856 19.000,9.000 C19.000,9.145 18.966,9.280 18.911,9.404 Z" class="cls-1"/>
</svg>
