<svg xmlns="http://www.w3.org/2000/svg" xmlns:xlink="http://www.w3.org/1999/xlink" preserveAspectRatio="xMidYMid" width="19" height="18.03" viewBox="0 0 19 18.03">
  <defs>
    <style>
      .cls-1 {
        fill: #fff;
        filter: url(#color-overlay-1);
        fill-rule: evenodd;
      }
    </style>

    <filter id="color-overlay-1" filterUnits="userSpaceOnUse">
      <feFlood flood-color="#fff"/>
      <feComposite operator="in" in2="SourceGraphic"/>
      <feBlend in2="SourceGraphic" result="solidFill"/>
    </filter>
  </defs>
  <path d="M18.000,10.000 L3.445,10.000 L9.715,16.270 C10.114,16.669 10.114,17.317 9.715,17.716 C9.316,18.116 8.669,18.116 8.269,17.716 L0.317,9.764 C0.212,9.658 0.138,9.535 0.088,9.404 C0.033,9.280 0.000,9.144 0.000,9.000 C0.000,8.855 0.034,8.720 0.089,8.595 C0.139,8.465 0.212,8.343 0.317,8.238 L8.269,0.285 C8.669,-0.114 9.316,-0.114 9.715,0.285 C10.114,0.685 10.114,1.332 9.715,1.731 L3.447,8.000 L18.000,8.000 C18.552,8.000 19.000,8.447 19.000,9.000 C19.000,9.552 18.552,10.000 18.000,10.000 Z" class="cls-1"/>
</svg>
